<svg xmlns="http://www.w3.org/2000/svg" version="1.1" xmlns:xlink="http://www.w3.org/1999/xlink" xmlns:svgjs="http://svgjs.dev/svgjs" width="2000" height="1500" viewBox="0 0 2000 1500"><rect width="2000" height="1500" fill="#127c71"></rect><g transform="matrix(0.75,0,0,0.75,249.090909090909,282.7536437246964)"><svg viewBox="0 0 396 247" data-background-color="#127c71" preserveAspectRatio="xMidYMid meet" height="1247" width="2000" xmlns="http://www.w3.org/2000/svg" xmlns:xlink="http://www.w3.org/1999/xlink"><g id="tight-bounds" transform="matrix(1,0,0,1,0.2400000000000091,-0.09999999999999432)"><svg viewBox="0 0 395.52 247.2" height="247.2" width="395.52"><g><svg></svg></g><g><svg viewBox="0 0 395.52 247.2" height="247.2" width="395.52"><g transform="matrix(1,0,0,1,75.54432000000001,52.071491654786286)"><svg viewBox="0 0 244.43135999999996 143.05701669042742" height="143.05701669042742" width="244.43135999999996"><g><svg viewBox="0 0 244.43135999999996 143.05701669042742" height="143.05701669042742" width="244.43135999999996"><g><svg viewBox="0 0 244.43135999999996 143.05701669042742" height="143.05701669042742" width="244.43135999999996"><g><svg viewBox="0 0 244.43135999999996 143.05701669042742" height="143.05701669042742" width="244.43135999999996"><g id="textblocktransform"><svg viewBox="0 0 244.43135999999996 143.05701669042742" height="143.05701669042742" width="244.43135999999996" id="textblock"><g><svg viewBox="0 0 244.43135999999996 98.64090964196501" height="98.64090964196501" width="244.43135999999996"><g transform="matrix(1,0,0,1,0,0)"><svg width="244.43135999999996" viewBox="4 -35.01 87.96 35.5" height="98.64090964196501" data-palette-color="#ffffff"><path d="M28.71 0L25.56 0 25.56-24 25.34-22.51 17.21 0 15.55 0 7.35-22.51 7.15-24 7.15 0 4 0 4-35.01 5.64-35.01 16.26-6.3 16.36-5 16.46-6.3 27.05-35.01 28.71-35.01 28.71 0ZM51.9 0L50.9 0 49.24-2.49Q48.22-1.15 46.68-0.33 45.14 0.49 43.31 0.49L43.31 0.49 42.55 0.49Q41.04 0.49 39.69-0.09 38.35-0.66 37.35-1.66 36.35-2.66 35.78-4 35.2-5.35 35.2-6.86L35.2-6.86 35.2-7.1Q35.2-8.62 35.78-9.96 36.35-11.3 37.35-12.3 38.35-13.31 39.69-13.88 41.04-14.45 42.55-14.45L42.55-14.45 48.9-14.45 48.9-18.31Q48.9-19.21 48.56-20.01 48.22-20.8 47.63-21.39 47.04-21.97 46.25-22.31 45.46-22.66 44.55-22.66L44.55-22.66 42.8-22.66Q41.89-22.66 41.1-22.31 40.31-21.97 39.72-21.39 39.13-20.8 38.79-20.01 38.45-19.21 38.45-18.31L38.45-18.31 38.45-17.41 35.45-17.9 35.45-18.14Q35.45-19.65 36.02-21 36.59-22.34 37.6-23.34 38.6-24.34 39.94-24.91 41.28-25.49 42.8-25.49L42.8-25.49 44.55-25.49Q46.07-25.49 47.41-24.91 48.75-24.34 49.75-23.34 50.75-22.34 51.33-21 51.9-19.65 51.9-18.14L51.9-18.14 51.9 0ZM48.9-6.69L48.9-12.11 42.55-12.11Q41.65-12.11 40.85-11.77 40.06-11.43 39.48-10.83 38.89-10.23 38.55-9.44 38.21-8.64 38.21-7.74L38.21-7.74 38.21-6.69Q38.21-5.79 38.55-4.99 38.89-4.2 39.48-3.61 40.06-3.03 40.85-2.69 41.65-2.34 42.55-2.34L42.55-2.34 44.55-2.34Q45.46-2.34 46.25-2.69 47.04-3.03 47.63-3.61 48.22-4.2 48.56-4.99 48.9-5.79 48.9-6.69L48.9-6.69ZM69.75 0L67.01 0Q65.64 0 64.44-0.51 63.23-1.03 62.34-1.93 61.45-2.83 60.92-4.03 60.4-5.22 60.4-6.59L60.4-6.59 60.4-22.14 55.9-22.14 55.9-25 60.4-25 60.4-31.01 63.4-31.49 63.4-25 69.75-25 69.75-22.14 63.4-22.14 63.4-6.45Q63.4-5.69 63.68-5.04 63.96-4.39 64.45-3.91 64.94-3.42 65.6-3.14 66.25-2.86 67.01-2.86L67.01-2.86 69.75-2.86 69.75 0ZM91.96 0L88.96 0 88.96-18.31Q88.96-19.21 88.62-20.01 88.27-20.8 87.69-21.39 87.1-21.97 86.31-22.31 85.51-22.66 84.61-22.66L84.61-22.66 82.61-22.66Q81.71-22.66 80.91-22.31 80.12-21.97 79.53-21.39 78.95-20.8 78.61-20.01 78.26-19.21 78.26-18.31L78.26-18.31 78.26 0 75.26 0 75.26-35.01 78.26-35.01 78.26-22.9Q79.29-24.12 80.73-24.8 82.17-25.49 83.85-25.49L83.85-25.49 84.61-25.49Q86.13-25.49 87.47-24.91 88.81-24.34 89.81-23.34 90.81-22.34 91.39-21 91.96-19.65 91.96-18.14L91.96-18.14 91.96 0Z" opacity="1" transform="matrix(1,0,0,1,0,0)" fill="#ffffff" class="wordmark-text-0" data-fill-palette-color="primary" id="text-0"></path></svg></g></svg></g><g transform="matrix(1,0,0,1,0,121.92766102660154)"><svg viewBox="0 0 232.20979199999994 21.129355663825876" height="21.129355663825876" width="232.20979199999994"><g transform="matrix(1,0,0,1,0,0)"><svg width="232.20979199999994" viewBox="1.85 -34.25 381.32 34.7" height="21.129355663825876" data-palette-color="#ffffff"><path d="M1.85 0.15L1.85 0.15Q1.85-1.05 1.9-1.88 1.95-2.7 2.15-3.3L2.15-3.3Q3.5-3.4 4.23-3.83 4.95-4.25 5.25-5.35 5.55-6.45 5.55-8.6L5.55-8.6 5.55-25.3Q5.55-27.4 5.3-28.45 5.05-29.5 4.33-29.93 3.6-30.35 2.25-30.5L2.25-30.5Q2.05-31.15 1.95-32.02 1.85-32.9 1.85-33.95L1.85-33.95Q2.95-33.9 4.53-33.88 6.1-33.85 7.9-33.83 9.7-33.8 11.35-33.8 13-33.8 14.2-33.8L14.2-33.8 14.2-9.2Q14.2-7.05 14.68-5.83 15.15-4.6 16.28-4.03 17.4-3.45 19.35-3.3L19.35-3.3Q19.65-2.6 19.7-1.68 19.75-0.75 19.75 0.15L19.75 0.15Q18.85 0.1 17.38 0.08 15.9 0.05 14.25 0.03 12.6 0 11.1 0L11.1 0Q8.65 0 6.03 0.03 3.4 0.05 1.85 0.15ZM24.55-9.55L24.55-9.55Q23.35-9.55 22.43-9.63 21.5-9.7 20.75-10L20.75-10Q20.55-12.15 19.6-12.9 18.65-13.65 16.2-13.65L16.2-13.65 13.15-13.65 13.15-17 16.2-17Q18.85-17 19.73-17.8 20.6-18.6 20.65-20.65L20.65-20.65Q21.45-21 22.5-21.1 23.55-21.2 24.55-21.2L24.55-21.2Q24.5-20 24.43-18.6 24.35-17.2 24.35-15.45L24.35-15.45Q24.35-13.55 24.43-12.13 24.5-10.7 24.55-9.55ZM24.75-24.5L24.75-24.5Q24.5-26.2 23.83-27.58 23.15-28.95 21.68-29.73 20.2-30.5 17.5-30.5L17.5-30.5 12.2-30.5 13.75-33.8Q17.75-33.8 20.45-33.83 23.15-33.85 24.98-33.88 26.8-33.9 28.05-33.95L28.05-33.95Q28.1-32.75 28.23-31.15 28.35-29.55 28.58-28.03 28.8-26.5 29.1-25.3L29.1-25.3Q28.25-24.95 27.25-24.73 26.25-24.5 24.75-24.5ZM48.95 0.45L48.95 0.45Q43.65 0.45 39.85-1.78 36.05-4 33.97-7.93 31.9-11.85 31.9-17.05L31.9-17.05Q31.9-21 33.17-24.18 34.45-27.35 36.72-29.6 39-31.85 42.12-33.05 45.25-34.25 48.95-34.25L48.95-34.25Q54.1-34.25 57.92-32.18 61.75-30.1 63.9-26.35 66.05-22.6 66.05-17.5L66.05-17.5Q66.05-13.55 64.85-10.28 63.65-7 61.4-4.6 59.15-2.2 56-0.88 52.85 0.45 48.95 0.45ZM49.65-3.1L49.65-3.1Q52.05-3.1 53.7-4.78 55.35-6.45 56.22-9.43 57.1-12.4 57.1-16.4L57.1-16.4Q57.1-20.4 56-23.68 54.9-26.95 52.9-28.9 50.9-30.85 48.2-30.85L48.2-30.85Q45.95-30.85 44.3-29.35 42.65-27.85 41.75-25.05 40.85-22.25 40.85-18.3L40.85-18.3Q40.85-15.25 41.4-12.5 41.95-9.75 43.02-7.63 44.1-5.5 45.75-4.3 47.4-3.1 49.65-3.1ZM91.75 0.45L91.75 0.45Q91.15-0.85 90.59-2.08 90.05-3.3 89.55-4.53 89.05-5.75 88.5-7.05L88.5-7.05Q87.75-8.85 87.09-10.08 86.45-11.3 85.65-12.23 84.84-13.15 83.65-14.05L83.65-14.05 85.9-13.65Q84.55-13.6 83.52-13.58 82.5-13.55 81.2-13.6L81.2-13.6 81.59-17.25Q82.34-17.15 82.8-17.1 83.25-17.05 83.65-17.05L83.65-17.05Q85.45-17.05 86.97-17.78 88.5-18.5 89.47-20.03 90.45-21.55 90.45-23.85L90.45-23.85Q90.45-27 88.92-28.8 87.4-30.6 84.5-30.6L84.5-30.6Q83.7-30.6 83.02-30.5 82.34-30.4 81.59-30.15L81.59-30.15 82-31.8 82-8.95Q82-6.5 82.25-5.3 82.5-4.1 83.07-3.73 83.65-3.35 84.65-3.3L84.65-3.3Q84.84-2.8 84.9-1.8 84.95-0.8 84.95 0.15L84.95 0.15Q84 0.1 82.5 0.08 81 0.05 79.5 0.03 78 0 76.95 0L76.95 0Q75.09 0 73.17 0.03 71.25 0.05 69.64 0.15L69.64 0.15Q69.64-0.95 69.72-1.8 69.8-2.65 70-3.3L70-3.3Q71.34-3.4 72.07-3.83 72.8-4.25 73.07-5.35 73.34-6.45 73.34-8.6L73.34-8.6 73.34-25.35Q73.34-27.45 73.07-28.53 72.8-29.6 72.07-30 71.34-30.4 69.95-30.55L69.95-30.55Q69.75-31.25 69.7-32.35 69.64-33.45 69.64-33.95L69.64-33.95Q70.95-33.9 73.07-33.85 75.2-33.8 77.55-33.8L77.55-33.8Q79.15-33.8 81.82-33.9 84.5-34 87.4-34L87.4-34Q91.59-34 94.27-32.77 96.95-31.55 98.2-29.48 99.45-27.4 99.45-24.85L99.45-24.85Q99.45-21.8 98.27-19.58 97.09-17.35 95.05-16.1 93-14.85 90.4-14.5L90.4-14.5 91.34-15.15Q92.84-14.45 93.77-13.63 94.7-12.8 95.62-11.33 96.55-9.85 97.95-7.15L97.95-7.15Q98.7-5.75 99.3-4.98 99.9-4.2 100.65-3.88 101.4-3.55 102.55-3.45L102.55-3.45Q102.55-2.5 102.44-1.65 102.34-0.8 102.09 0L102.09 0Q98.7 0 96.02 0.1 93.34 0.2 91.75 0.45ZM115.09-33.95L115.09-33.95Q116.14-33.9 117.74-33.88 119.34-33.85 121.12-33.83 122.89-33.8 124.54-33.8 126.19-33.8 127.44-33.8L127.44-33.8 127.44-8.9Q127.44-6.75 127.79-5.53 128.14-4.3 129.02-3.83 129.89-3.35 131.49-3.35L131.49-3.35 129.89 0Q128.54 0 126.42 0.03 124.29 0.05 122.02 0.08 119.74 0.1 117.84 0.13 115.94 0.15 115.09 0.15L115.09 0.15Q115.09-0.85 115.17-1.78 115.24-2.7 115.44-3.3L115.44-3.3Q116.79-3.4 117.52-3.83 118.24-4.25 118.52-5.38 118.79-6.5 118.79-8.7L118.79-8.7 118.79-25.3Q118.79-27.4 118.52-28.45 118.24-29.5 117.52-29.93 116.79-30.35 115.39-30.5L115.39-30.5Q115.19-31.15 115.14-32.18 115.09-33.2 115.09-33.95ZM139.54-10.05L139.54-10.05Q140.94-9.9 142.12-9.47 143.29-9.05 143.89-8.45L143.89-8.45Q143.34-6.75 142.94-4.45 142.54-2.15 142.34 0.1L142.34 0.1Q140.99 0.05 138.89 0.05 136.79 0.05 134.42 0.03 132.04 0 129.89 0L129.89 0 131.49-3.35 132.19-3.35Q134.39-3.35 135.77-4.08 137.14-4.8 137.99-6.28 138.84-7.75 139.54-10.05ZM136.59-22.75L136.59-22.75Q136.54-21.55 136.47-20.15 136.39-18.75 136.39-17L136.39-17Q136.39-15.1 136.47-13.68 136.54-12.25 136.59-11.1L136.59-11.1Q135.39-11.1 134.49-11.2 133.59-11.3 132.79-11.55L132.79-11.55Q132.59-13.75 131.64-14.48 130.69-15.2 128.24-15.2L128.24-15.2 125.24-15.2 125.24-18.55 128.24-18.55Q130.89-18.55 131.77-19.35 132.64-20.15 132.69-22.2L132.69-22.2Q133.49-22.55 134.54-22.65 135.59-22.75 136.59-22.75ZM140.94-33.95L140.94-33.95Q140.99-32.75 141.14-31.15 141.29-29.55 141.49-28.03 141.69-26.5 141.99-25.3L141.99-25.3Q141.19-24.95 140.17-24.73 139.14-24.5 137.64-24.5L137.64-24.5Q137.39-26.2 136.72-27.58 136.04-28.95 134.59-29.73 133.14-30.5 130.44-30.5L130.44-30.5 125.49-30.5 127.04-33.8Q130.84-33.8 133.47-33.83 136.09-33.85 137.89-33.88 139.69-33.9 140.94-33.95ZM160.54 0.4L160.54 0.4Q158.89-4.05 157.16-8.35 155.44-12.65 153.74-16.75 152.04-20.85 150.39-24.6L150.39-24.6Q149.29-26.95 148.64-28.18 147.99-29.4 147.41-29.88 146.84-30.35 146.04-30.5L146.04-30.5Q145.84-31.15 145.74-32.02 145.64-32.9 145.69-33.95L145.69-33.95Q146.29-33.9 147.29-33.88 148.29-33.85 149.44-33.83 150.59-33.8 151.61-33.8 152.64-33.8 153.29-33.8L153.29-33.8Q154.59-33.8 156.81-33.83 159.04-33.85 161.19-33.95L161.19-33.95Q161.14-32.8 161.04-31.95 160.94-31.1 160.79-30.5L160.79-30.5Q159.44-30.3 158.86-29.83 158.29-29.35 158.46-28.33 158.64-27.3 159.44-25.4L159.44-25.4Q160.59-22.6 161.61-19.95 162.64-17.3 163.61-14.45 164.59-11.6 165.59-8.2L165.59-8.2 164.14-8.2Q165.59-11.5 166.76-14.28 167.94-17.05 169.04-19.9 170.14-22.75 171.29-26.1L171.29-26.1Q171.89-27.9 171.54-29.1 171.19-30.3 169.44-30.5L169.44-30.5Q169.24-31.1 169.14-31.95 169.04-32.8 169.04-33.95L169.04-33.95Q169.69-33.9 170.64-33.88 171.59-33.85 172.59-33.83 173.59-33.8 174.39-33.8L174.39-33.8Q175.64-33.8 177.09-33.85 178.54-33.9 179.39-33.95L179.39-33.95Q179.39-32.95 179.26-32.1 179.14-31.25 178.94-30.5L178.94-30.5Q177.59-30.2 176.71-29.05 175.84-27.9 174.79-25.25L174.79-25.25Q172.34-18.95 169.81-12.73 167.29-6.5 164.44 0.05L164.44 0.05Q163.69 0.3 162.61 0.35 161.54 0.4 160.54 0.4ZM181.94-33.95L181.94-33.95Q182.99-33.9 184.59-33.88 186.19-33.85 187.96-33.83 189.74-33.8 191.39-33.8 193.03-33.8 194.28-33.8L194.28-33.8 194.28-8.9Q194.28-6.75 194.64-5.53 194.99-4.3 195.86-3.83 196.74-3.35 198.34-3.35L198.34-3.35 196.74 0Q195.39 0 193.26 0.03 191.14 0.05 188.86 0.08 186.59 0.1 184.69 0.13 182.78 0.15 181.94 0.15L181.94 0.15Q181.94-0.85 182.01-1.78 182.09-2.7 182.28-3.3L182.28-3.3Q183.64-3.4 184.36-3.83 185.09-4.25 185.36-5.38 185.64-6.5 185.64-8.7L185.64-8.7 185.64-25.3Q185.64-27.4 185.36-28.45 185.09-29.5 184.36-29.93 183.64-30.35 182.24-30.5L182.24-30.5Q182.03-31.15 181.99-32.18 181.94-33.2 181.94-33.95ZM206.39-10.05L206.39-10.05Q207.79-9.9 208.96-9.47 210.14-9.05 210.74-8.45L210.74-8.45Q210.19-6.75 209.79-4.45 209.39-2.15 209.19 0.1L209.19 0.1Q207.84 0.05 205.74 0.05 203.64 0.05 201.26 0.03 198.89 0 196.74 0L196.74 0 198.34-3.35 199.03-3.35Q201.24-3.35 202.61-4.08 203.99-4.8 204.84-6.28 205.69-7.75 206.39-10.05ZM203.44-22.75L203.44-22.75Q203.39-21.55 203.31-20.15 203.24-18.75 203.24-17L203.24-17Q203.24-15.1 203.31-13.68 203.39-12.25 203.44-11.1L203.44-11.1Q202.24-11.1 201.34-11.2 200.44-11.3 199.64-11.55L199.64-11.55Q199.44-13.75 198.49-14.48 197.53-15.2 195.09-15.2L195.09-15.2 192.09-15.2 192.09-18.55 195.09-18.55Q197.74-18.55 198.61-19.35 199.49-20.15 199.54-22.2L199.54-22.2Q200.34-22.55 201.39-22.65 202.44-22.75 203.44-22.75ZM207.79-33.95L207.79-33.95Q207.84-32.75 207.99-31.15 208.14-29.55 208.34-28.03 208.54-26.5 208.84-25.3L208.84-25.3Q208.04-24.95 207.01-24.73 205.99-24.5 204.49-24.5L204.49-24.5Q204.24-26.2 203.56-27.58 202.89-28.95 201.44-29.73 199.99-30.5 197.28-30.5L197.28-30.5 192.34-30.5 193.89-33.8Q197.69-33.8 200.31-33.83 202.94-33.85 204.74-33.88 206.54-33.9 207.79-33.95ZM235.78 0.45L235.78 0.45Q235.18-0.85 234.63-2.08 234.08-3.3 233.58-4.53 233.08-5.75 232.53-7.05L232.53-7.05Q231.78-8.85 231.13-10.08 230.48-11.3 229.68-12.23 228.88-13.15 227.68-14.05L227.68-14.05 229.93-13.65Q228.58-13.6 227.56-13.58 226.53-13.55 225.23-13.6L225.23-13.6 225.63-17.25Q226.38-17.15 226.83-17.1 227.28-17.05 227.68-17.05L227.68-17.05Q229.48-17.05 231.01-17.78 232.53-18.5 233.51-20.03 234.48-21.55 234.48-23.85L234.48-23.85Q234.48-27 232.96-28.8 231.43-30.6 228.53-30.6L228.53-30.6Q227.73-30.6 227.06-30.5 226.38-30.4 225.63-30.15L225.63-30.15 226.03-31.8 226.03-8.95Q226.03-6.5 226.28-5.3 226.53-4.1 227.11-3.73 227.68-3.35 228.68-3.3L228.68-3.3Q228.88-2.8 228.93-1.8 228.98-0.8 228.98 0.15L228.98 0.15Q228.03 0.1 226.53 0.08 225.03 0.05 223.53 0.03 222.03 0 220.98 0L220.98 0Q219.13 0 217.21 0.03 215.28 0.05 213.68 0.15L213.68 0.15Q213.68-0.95 213.76-1.8 213.83-2.65 214.03-3.3L214.03-3.3Q215.38-3.4 216.11-3.83 216.83-4.25 217.11-5.35 217.38-6.45 217.38-8.6L217.38-8.6 217.38-25.35Q217.38-27.45 217.11-28.53 216.83-29.6 216.11-30 215.38-30.4 213.98-30.55L213.98-30.55Q213.78-31.25 213.73-32.35 213.68-33.45 213.68-33.95L213.68-33.95Q214.98-33.9 217.11-33.85 219.23-33.8 221.58-33.8L221.58-33.8Q223.18-33.8 225.86-33.9 228.53-34 231.43-34L231.43-34Q235.63-34 238.31-32.77 240.98-31.55 242.23-29.48 243.48-27.4 243.48-24.85L243.48-24.85Q243.48-21.8 242.31-19.58 241.13-17.35 239.08-16.1 237.03-14.85 234.43-14.5L234.43-14.5 235.38-15.15Q236.88-14.45 237.81-13.63 238.73-12.8 239.66-11.33 240.58-9.85 241.98-7.15L241.98-7.15Q242.73-5.75 243.33-4.98 243.93-4.2 244.68-3.88 245.43-3.55 246.58-3.45L246.58-3.45Q246.58-2.5 246.48-1.65 246.38-0.8 246.13 0L246.13 0Q242.73 0 240.06 0.1 237.38 0.2 235.78 0.45ZM259.03-13.1L267.68-13.1 267.68-9.45Q267.68-6.95 268.01-5.7 268.33-4.45 269.36-3.98 270.38-3.5 272.38-3.3L272.38-3.3Q272.68-2.4 272.76-1.65 272.83-0.9 272.83 0.15L272.83 0.15Q270.78 0.05 268.23 0.03 265.68 0 263.23 0L263.23 0Q261.58 0 259.83 0.03 258.08 0.05 256.48 0.08 254.88 0.1 253.53 0.15L253.53 0.15Q253.58-0.8 253.68-1.7 253.78-2.6 254.08-3.3L254.08-3.3Q256.33-3.5 257.38-3.9 258.43-4.3 258.73-5.53 259.03-6.75 259.03-9.3L259.03-9.3 259.03-13.1ZM273.98-26.05L265.43-7.6 261.48-7.55 251.73-27.55Q250.93-29.15 250.13-29.78 249.33-30.4 248.33-30.5L248.33-30.5Q248.13-31.3 248.06-32.08 247.98-32.85 247.98-33.9L247.98-33.9Q249.03-33.85 250.46-33.83 251.88-33.8 253.23-33.8 254.58-33.8 255.53-33.8L255.53-33.8Q256.48-33.8 258.01-33.8 259.53-33.8 261.06-33.83 262.58-33.85 263.53-33.9L263.53-33.9Q263.53-32.8 263.43-32.05 263.33-31.3 263.18-30.55L263.18-30.55Q261.53-30.35 261.43-29.3 261.33-28.25 262.13-26.4L262.13-26.4Q262.98-24.5 264.11-21.8 265.23-19.1 266.38-16.2L266.38-16.2 266.08-16.2Q267.28-19.2 268.41-21.78 269.53-24.35 270.43-26.45L270.43-26.45Q271.33-28.35 270.96-29.35 270.58-30.35 269.03-30.5L269.03-30.5Q268.83-31.3 268.71-32.08 268.58-32.85 268.58-33.9L268.58-33.9Q269.83-33.85 271.06-33.83 272.28-33.8 273.68-33.8L273.68-33.8Q274.83-33.8 275.98-33.83 277.13-33.85 278.23-33.9L278.23-33.9Q278.23-32.85 278.13-32.02 278.03-31.2 277.83-30.55L277.83-30.55Q276.83-30.3 275.98-29.38 275.13-28.45 273.98-26.05L273.98-26.05ZM297.73 0.45L297.73 0.45Q292.43 0.45 288.63-1.78 284.83-4 282.75-7.93 280.68-11.85 280.68-17.05L280.68-17.05Q280.68-21 281.95-24.18 283.23-27.35 285.5-29.6 287.78-31.85 290.9-33.05 294.03-34.25 297.73-34.25L297.73-34.25Q302.88-34.25 306.7-32.18 310.53-30.1 312.68-26.35 314.83-22.6 314.83-17.5L314.83-17.5Q314.83-13.55 313.63-10.28 312.43-7 310.18-4.6 307.93-2.2 304.78-0.88 301.63 0.45 297.73 0.45ZM298.43-3.1L298.43-3.1Q300.83-3.1 302.48-4.78 304.13-6.45 305-9.43 305.88-12.4 305.88-16.4L305.88-16.4Q305.88-20.4 304.78-23.68 303.68-26.95 301.68-28.9 299.68-30.85 296.98-30.85L296.98-30.85Q294.73-30.85 293.08-29.35 291.43-27.85 290.53-25.05 289.63-22.25 289.63-18.3L289.63-18.3Q289.63-15.25 290.18-12.5 290.73-9.75 291.8-7.63 292.88-5.5 294.53-4.3 296.18-3.1 298.43-3.1ZM344.77-12.25L343.52 0.4 321.52-29.05Q321.07-29.8 320.4-30.08 319.72-30.35 318.22-30.5L318.22-30.5Q318.02-31.25 317.93-32.15 317.82-33.05 317.82-33.95L317.82-33.95Q318.47-33.9 319.57-33.88 320.68-33.85 321.82-33.83 322.97-33.8 323.72-33.8L323.72-33.8Q324.93-33.8 326.4-33.83 327.88-33.85 328.82-33.95L328.82-33.95 344.77-12.25ZM317.82 0.15L317.82 0.15Q317.82-0.9 317.9-1.75 317.97-2.6 318.22-3.3L318.22-3.3Q319.72-3.45 320.55-4.05 321.38-4.65 321.75-6.15 322.13-7.65 322.13-10.5L322.13-10.5 322.13-30.7 325.57-30.4 325.57-10.5Q325.57-7.65 325.88-6.15 326.18-4.65 327-4.05 327.82-3.45 329.38-3.3L329.38-3.3Q329.57-2.6 329.63-1.68 329.68-0.75 329.68 0.15L329.68 0.15Q328.97 0.1 327.93 0.08 326.88 0.05 325.82 0.03 324.77 0 323.93 0L323.93 0Q323.13 0 321.9 0.03 320.68 0.05 319.57 0.08 318.47 0.1 317.82 0.15ZM343.52 0.4L343.52 0.4 344.02-7.9 344.02-23.35Q344.02-26.2 343.72-27.68 343.43-29.15 342.55-29.75 341.68-30.35 339.97-30.5L339.97-30.5Q339.77-31.35 339.7-32.27 339.63-33.2 339.63-33.95L339.63-33.95Q340.38-33.9 341.47-33.88 342.57-33.85 343.75-33.83 344.93-33.8 345.72-33.8L345.72-33.8Q346.97-33.8 348.47-33.85 349.97-33.9 350.88-33.95L350.88-33.95Q350.88-33.1 350.82-32.25 350.77-31.4 350.57-30.5L350.57-30.5Q349.32-30.4 348.65-29.8 347.97-29.2 347.72-27.73 347.47-26.25 347.47-23.35L347.47-23.35 347.47 0Q346.63 0.25 345.68 0.33 344.72 0.4 343.52 0.4ZM354.37-33.95L354.37-33.95Q355.42-33.9 357.02-33.88 358.62-33.85 360.4-33.83 362.17-33.8 363.82-33.8 365.47-33.8 366.72-33.8L366.72-33.8 366.72-8.9Q366.72-6.75 367.07-5.53 367.42-4.3 368.3-3.83 369.17-3.35 370.77-3.35L370.77-3.35 369.17 0Q367.82 0 365.7 0.03 363.57 0.05 361.3 0.08 359.02 0.1 357.12 0.13 355.22 0.15 354.37 0.15L354.37 0.15Q354.37-0.85 354.45-1.78 354.52-2.7 354.72-3.3L354.72-3.3Q356.07-3.4 356.8-3.83 357.52-4.25 357.8-5.38 358.07-6.5 358.07-8.7L358.07-8.7 358.07-25.3Q358.07-27.4 357.8-28.45 357.52-29.5 356.8-29.93 356.07-30.35 354.67-30.5L354.67-30.5Q354.47-31.15 354.42-32.18 354.37-33.2 354.37-33.95ZM378.82-10.05L378.82-10.05Q380.22-9.9 381.4-9.47 382.57-9.05 383.17-8.45L383.17-8.45Q382.62-6.75 382.22-4.45 381.82-2.15 381.62 0.1L381.62 0.1Q380.27 0.05 378.17 0.05 376.07 0.05 373.7 0.03 371.32 0 369.17 0L369.17 0 370.77-3.35 371.47-3.35Q373.67-3.35 375.05-4.08 376.42-4.8 377.27-6.28 378.12-7.75 378.82-10.05ZM375.87-22.75L375.87-22.75Q375.82-21.55 375.75-20.15 375.67-18.75 375.67-17L375.67-17Q375.67-15.1 375.75-13.68 375.82-12.25 375.87-11.1L375.87-11.1Q374.67-11.1 373.77-11.2 372.87-11.3 372.07-11.55L372.07-11.55Q371.87-13.75 370.92-14.48 369.97-15.2 367.52-15.2L367.52-15.2 364.52-15.2 364.52-18.55 367.52-18.55Q370.17-18.55 371.05-19.35 371.92-20.15 371.97-22.2L371.97-22.2Q372.77-22.55 373.82-22.65 374.87-22.75 375.87-22.75ZM380.22-33.95L380.22-33.95Q380.27-32.75 380.42-31.15 380.57-29.55 380.77-28.03 380.97-26.5 381.27-25.3L381.27-25.3Q380.47-24.95 379.45-24.73 378.42-24.5 376.92-24.5L376.92-24.5Q376.67-26.2 376-27.58 375.32-28.95 373.87-29.73 372.42-30.5 369.72-30.5L369.72-30.5 364.77-30.5 366.32-33.8Q370.12-33.8 372.75-33.83 375.37-33.85 377.17-33.88 378.97-33.9 380.22-33.95Z" opacity="1" transform="matrix(1,0,0,1,0,0)" fill="#ffffff" class="slogan-text-1" data-fill-palette-color="secondary" id="text-1"></path></svg></g></svg></g></svg></g></svg></g></svg></g></svg></g></svg></g><g><path d="M245.816 0c68.262 0 123.6 55.338 123.6 123.6 0 68.262-55.338 123.6-123.6 123.6-36.232 0-68.823-15.59-91.431-40.428l6.109 0c21.641 22.197 51.872 35.98 85.322 35.98 65.806 0 119.152-53.346 119.152-119.152 0-65.806-53.346-119.152-119.152-119.152-33.45 0-63.68 13.783-85.322 35.98l-6.109 0c22.608-24.838 55.199-40.428 91.431-40.428z" fill="#ffffff" stroke="transparent" data-fill-palette-color="tertiary"></path></g></svg></g><defs></defs></svg><rect width="395.52" height="247.2" fill="none" stroke="none" visibility="hidden"></rect></g></svg></g></svg>